<mxfile host="app.diagrams.net" agent="Mozilla/5.0 (Windows NT 10.0; Win64; x64) AppleWebKit/537.36 (KHTML, like Gecko) Chrome/139.0.0.0 Safari/537.36 Edg/139.0.0.0" border="50" scale="3" compressed="false" locked="false" version="28.0.7">
  <diagram name="Blank" id="YmL12bMKpDGza6XwsDPr">
    <mxGraphModel dx="1758" dy="877" grid="0" gridSize="10" guides="1" tooltips="1" connect="1" arrows="1" fold="1" page="0" pageScale="1" pageWidth="827" pageHeight="1169" background="none" math="1" shadow="0">
      <root>
        <mxCell id="X5NqExCQtvZxIxQ7pmgY-0" />
        <mxCell id="1" parent="X5NqExCQtvZxIxQ7pmgY-0" />
        <mxCell id="Gr0Zq-AI6Quabplr0KPa-179" value="" style="swimlane;html=1;startSize=20;horizontal=1;containerType=tree;labelBackgroundColor=none;strokeColor=#D4E1F5;strokeWidth=1;fillColor=none;fontFamily=Comic Sans MS;fontSize=9;swimlaneLine=0;dashed=1;collapsible=0;" parent="1" vertex="1">
          <mxGeometry x="-100" y="8" width="985" height="751" as="geometry" />
        </mxCell>
        <mxCell id="Wol84TqTKh0d5aKQ5Rpt-4" style="edgeStyle=orthogonalEdgeStyle;rounded=0;orthogonalLoop=1;jettySize=auto;html=1;exitX=0.5;exitY=1;exitDx=0;exitDy=0;entryX=0;entryY=0.5;entryDx=0;entryDy=0;" edge="1" parent="Gr0Zq-AI6Quabplr0KPa-179" source="Wol84TqTKh0d5aKQ5Rpt-1" target="Wol84TqTKh0d5aKQ5Rpt-3">
          <mxGeometry relative="1" as="geometry" />
        </mxCell>
        <mxCell id="Wol84TqTKh0d5aKQ5Rpt-1" value="workflow&lt;div&gt;Engine&lt;/div&gt;" style="rounded=1;whiteSpace=wrap;html=1;" vertex="1" parent="Gr0Zq-AI6Quabplr0KPa-179">
          <mxGeometry x="221" y="119" width="120" height="60" as="geometry" />
        </mxCell>
        <mxCell id="Wol84TqTKh0d5aKQ5Rpt-5" style="edgeStyle=orthogonalEdgeStyle;rounded=0;orthogonalLoop=1;jettySize=auto;html=1;exitX=0.5;exitY=0;exitDx=0;exitDy=0;entryX=0;entryY=0.5;entryDx=0;entryDy=0;" edge="1" parent="Gr0Zq-AI6Quabplr0KPa-179" source="Wol84TqTKh0d5aKQ5Rpt-2" target="Wol84TqTKh0d5aKQ5Rpt-3">
          <mxGeometry relative="1" as="geometry" />
        </mxCell>
        <mxCell id="Wol84TqTKh0d5aKQ5Rpt-6" value="Error Logs" style="edgeLabel;html=1;align=center;verticalAlign=middle;resizable=0;points=[];fontSize=13;" vertex="1" connectable="0" parent="Wol84TqTKh0d5aKQ5Rpt-5">
          <mxGeometry x="0.4611" y="-1" relative="1" as="geometry">
            <mxPoint x="-17" y="-3" as="offset" />
          </mxGeometry>
        </mxCell>
        <mxCell id="Wol84TqTKh0d5aKQ5Rpt-2" value="Flow&lt;div&gt;Runtime/s&lt;/div&gt;" style="rounded=1;whiteSpace=wrap;html=1;" vertex="1" parent="Gr0Zq-AI6Quabplr0KPa-179">
          <mxGeometry x="221" y="265" width="120" height="60" as="geometry" />
        </mxCell>
        <mxCell id="Wol84TqTKh0d5aKQ5Rpt-9" style="edgeStyle=orthogonalEdgeStyle;rounded=0;orthogonalLoop=1;jettySize=auto;html=1;exitX=0.5;exitY=1;exitDx=0;exitDy=0;entryX=0.5;entryY=0;entryDx=0;entryDy=0;" edge="1" parent="Gr0Zq-AI6Quabplr0KPa-179" source="Wol84TqTKh0d5aKQ5Rpt-3" target="Wol84TqTKh0d5aKQ5Rpt-8">
          <mxGeometry relative="1" as="geometry" />
        </mxCell>
        <mxCell id="Wol84TqTKh0d5aKQ5Rpt-10" value="Transaction details &amp;amp;&lt;div&gt;Error logs&lt;/div&gt;" style="edgeLabel;html=1;align=center;verticalAlign=middle;resizable=0;points=[];" vertex="1" connectable="0" parent="Wol84TqTKh0d5aKQ5Rpt-9">
          <mxGeometry x="0.0159" relative="1" as="geometry">
            <mxPoint as="offset" />
          </mxGeometry>
        </mxCell>
        <mxCell id="Wol84TqTKh0d5aKQ5Rpt-3" value="E2E Monitoring" style="shape=process;whiteSpace=wrap;html=1;backgroundOutline=1;" vertex="1" parent="Gr0Zq-AI6Quabplr0KPa-179">
          <mxGeometry x="567" y="187" width="120" height="60" as="geometry" />
        </mxCell>
        <mxCell id="Wol84TqTKh0d5aKQ5Rpt-7" value="&lt;h1 style=&quot;margin-top: 0px;&quot;&gt;&lt;div&gt;&lt;font style=&quot;font-size: 14px;&quot; face=&quot;-apple-system, BlinkMacSystemFont, Segoe UI, Roboto, Noto Sans, Ubuntu, Droid Sans, Helvetica Neue, sans-serif&quot; color=&quot;#222222&quot;&gt;Standard error format&lt;/font&gt;&lt;/div&gt;&lt;ul&gt;&lt;li&gt;&lt;font style=&quot;font-size: 10px; font-weight: normal;&quot; color=&quot;#222222&quot;&gt;KEY&lt;/font&gt;&lt;/li&gt;&lt;li&gt;&lt;font style=&quot;font-size: 10px; font-weight: normal;&quot; color=&quot;#222222&quot;&gt;SUMMARY&lt;/font&gt;&lt;/li&gt;&lt;li&gt;&lt;font style=&quot;font-size: 10px; font-weight: normal;&quot; color=&quot;#222222&quot;&gt;EXPLANATION&lt;/font&gt;&lt;/li&gt;&lt;li&gt;&lt;font style=&quot;font-size: 10px; font-weight: normal;&quot; color=&quot;#222222&quot;&gt;ACTION&lt;/font&gt;&lt;/li&gt;&lt;/ul&gt;&lt;/h1&gt;" style="text;html=1;whiteSpace=wrap;overflow=hidden;rounded=0;fontSize=6;" vertex="1" parent="Gr0Zq-AI6Quabplr0KPa-179">
          <mxGeometry x="398" y="101" width="150" height="100" as="geometry" />
        </mxCell>
        <mxCell id="Wol84TqTKh0d5aKQ5Rpt-8" value="AI&lt;div&gt;Agent&lt;/div&gt;" style="shape=hexagon;perimeter=hexagonPerimeter2;whiteSpace=wrap;html=1;fixedSize=1;" vertex="1" parent="Gr0Zq-AI6Quabplr0KPa-179">
          <mxGeometry x="567" y="373" width="120" height="80" as="geometry" />
        </mxCell>
        <mxCell id="Wol84TqTKh0d5aKQ5Rpt-12" style="edgeStyle=orthogonalEdgeStyle;rounded=0;orthogonalLoop=1;jettySize=auto;html=1;entryX=0;entryY=0.5;entryDx=0;entryDy=0;exitX=1;exitY=1;exitDx=0;exitDy=0;" edge="1" parent="Gr0Zq-AI6Quabplr0KPa-179" source="Wol84TqTKh0d5aKQ5Rpt-25" target="Wol84TqTKh0d5aKQ5Rpt-8">
          <mxGeometry relative="1" as="geometry">
            <mxPoint x="313" y="451" as="sourcePoint" />
          </mxGeometry>
        </mxCell>
        <mxCell id="Wol84TqTKh0d5aKQ5Rpt-22" style="edgeStyle=orthogonalEdgeStyle;rounded=0;orthogonalLoop=1;jettySize=auto;html=1;exitX=0.5;exitY=0;exitDx=0;exitDy=0;entryX=0.5;entryY=1;entryDx=0;entryDy=0;" edge="1" parent="Gr0Zq-AI6Quabplr0KPa-179" source="Wol84TqTKh0d5aKQ5Rpt-11" target="Wol84TqTKh0d5aKQ5Rpt-13">
          <mxGeometry relative="1" as="geometry" />
        </mxCell>
        <mxCell id="Wol84TqTKh0d5aKQ5Rpt-23" value="Uses" style="edgeLabel;html=1;align=center;verticalAlign=middle;resizable=0;points=[];" vertex="1" connectable="0" parent="Wol84TqTKh0d5aKQ5Rpt-22">
          <mxGeometry x="0.0137" y="3" relative="1" as="geometry">
            <mxPoint as="offset" />
          </mxGeometry>
        </mxCell>
        <mxCell id="Wol84TqTKh0d5aKQ5Rpt-11" value="Centralized Message Bundle Repository&lt;div&gt;&lt;br&gt;&lt;div&gt;1 Bundle / component&lt;/div&gt;&lt;/div&gt;" style="shape=internalStorage;whiteSpace=wrap;html=1;backgroundOutline=1;fillColor=#dae8fc;strokeColor=#6c8ebf;" vertex="1" parent="Gr0Zq-AI6Quabplr0KPa-179">
          <mxGeometry x="15" y="497" width="200" height="119" as="geometry" />
        </mxCell>
        <mxCell id="Wol84TqTKh0d5aKQ5Rpt-13" value="Connectors &amp;amp; Other components" style="rounded=0;whiteSpace=wrap;html=1;" vertex="1" parent="Gr0Zq-AI6Quabplr0KPa-179">
          <mxGeometry x="33" y="113" width="164" height="236" as="geometry" />
        </mxCell>
        <mxCell id="Wol84TqTKh0d5aKQ5Rpt-14" value="" style="ellipse;whiteSpace=wrap;html=1;aspect=fixed;fillColor=#dae8fc;strokeColor=#6c8ebf;" vertex="1" parent="Gr0Zq-AI6Quabplr0KPa-179">
          <mxGeometry x="51" y="125.5" width="51" height="51" as="geometry" />
        </mxCell>
        <mxCell id="Wol84TqTKh0d5aKQ5Rpt-15" value="" style="ellipse;whiteSpace=wrap;html=1;aspect=fixed;fillColor=#e1d5e7;strokeColor=#9673a6;" vertex="1" parent="Gr0Zq-AI6Quabplr0KPa-179">
          <mxGeometry x="89.5" y="150" width="51" height="51" as="geometry" />
        </mxCell>
        <mxCell id="Wol84TqTKh0d5aKQ5Rpt-16" value="" style="ellipse;whiteSpace=wrap;html=1;aspect=fixed;fillColor=#bac8d3;strokeColor=#23445d;" vertex="1" parent="Gr0Zq-AI6Quabplr0KPa-179">
          <mxGeometry x="48" y="263" width="51" height="51" as="geometry" />
        </mxCell>
        <mxCell id="Wol84TqTKh0d5aKQ5Rpt-17" value="" style="ellipse;whiteSpace=wrap;html=1;aspect=fixed;fillColor=#b0e3e6;strokeColor=#0e8088;" vertex="1" parent="Gr0Zq-AI6Quabplr0KPa-179">
          <mxGeometry x="84" y="281" width="51" height="51" as="geometry" />
        </mxCell>
        <mxCell id="Wol84TqTKh0d5aKQ5Rpt-19" value="" style="ellipse;whiteSpace=wrap;html=1;aspect=fixed;fillColor=#d0cee2;strokeColor=#56517e;" vertex="1" parent="Gr0Zq-AI6Quabplr0KPa-179">
          <mxGeometry x="130" y="287" width="51" height="51" as="geometry" />
        </mxCell>
        <mxCell id="Wol84TqTKh0d5aKQ5Rpt-20" value="" style="ellipse;whiteSpace=wrap;html=1;aspect=fixed;fillColor=#f8cecc;strokeColor=#b85450;" vertex="1" parent="Gr0Zq-AI6Quabplr0KPa-179">
          <mxGeometry x="130" y="142" width="51" height="51" as="geometry" />
        </mxCell>
        <mxCell id="Wol84TqTKh0d5aKQ5Rpt-26" value="" style="edgeStyle=orthogonalEdgeStyle;rounded=0;orthogonalLoop=1;jettySize=auto;html=1;exitX=1;exitY=0.5;exitDx=0;exitDy=0;entryX=0;entryY=0.5;entryDx=0;entryDy=0;" edge="1" parent="Gr0Zq-AI6Quabplr0KPa-179" source="Wol84TqTKh0d5aKQ5Rpt-11" target="Wol84TqTKh0d5aKQ5Rpt-25">
          <mxGeometry relative="1" as="geometry">
            <mxPoint x="124" y="498" as="sourcePoint" />
            <mxPoint x="463" y="429" as="targetPoint" />
          </mxGeometry>
        </mxCell>
        <mxCell id="Wol84TqTKh0d5aKQ5Rpt-27" value="Fed to AI as Single Doc" style="edgeLabel;html=1;align=center;verticalAlign=middle;resizable=0;points=[];" vertex="1" connectable="0" parent="Wol84TqTKh0d5aKQ5Rpt-26">
          <mxGeometry x="-0.4637" y="2" relative="1" as="geometry">
            <mxPoint x="197" y="-115" as="offset" />
          </mxGeometry>
        </mxCell>
        <mxCell id="Wol84TqTKh0d5aKQ5Rpt-25" value="" style="shape=tapeData;whiteSpace=wrap;html=1;perimeter=ellipsePerimeter;" vertex="1" parent="Gr0Zq-AI6Quabplr0KPa-179">
          <mxGeometry x="315" y="446" width="31" height="31" as="geometry" />
        </mxCell>
        <mxCell id="Wol84TqTKh0d5aKQ5Rpt-33" value="Integration" style="swimlane;whiteSpace=wrap;html=1;" vertex="1" parent="Gr0Zq-AI6Quabplr0KPa-179">
          <mxGeometry x="8" y="65" width="368" height="583" as="geometry" />
        </mxCell>
      </root>
    </mxGraphModel>
  </diagram>
</mxfile>
